<svg id="Layer_1" data-name="Layer 1" xmlns="http://www.w3.org/2000/svg" viewBox="0 0 100 100"><defs><style>.cls-1{fill:#03d0ff;}</style></defs><path class="cls-1" d="M27.21,22.08h7.27l.12-.19a48.22,48.22,0,0,0-8.34-10.83A34.86,34.86,0,0,0,14.8,3.58,48.7,48.7,0,0,0,1.44.5c.31,0,.62,0,.93,0l1,.05A50.05,50.05,0,0,1,20.4,4.27,42.32,42.32,0,0,1,39.27,19.84a71.17,71.17,0,0,1,7.37,14.63c4.5,11.48,9,22.93,13.57,34.38l.35.85c.13-.26.21-.44.3-.61,1.36-2.63.83-5.3.12-8a17.26,17.26,0,0,0-5-8.4c-.88-.81-1-2-1.52-3.09a21.34,21.34,0,0,1,10.67,7.77c.12-.27.22-.46.29-.66q6.27-17,12.51-33.94A1,1,0,0,1,79,22.05c3.61,0,7.22,0,10.83.05h.62l0,.14a3.22,3.22,0,0,1-.5.16c-.85.08-1.7.13-2.54.23a3,3,0,0,0-3,3,11.34,11.34,0,0,0-.08,1.3q0,13.57,0,27.17,0,9.44,0,18.88a13.09,13.09,0,0,0,.21,2.08,2.38,2.38,0,0,0,1.83,2.09c1.1.26,2.23.35,3.35.5a2.23,2.23,0,0,1,.66.14q-9.2.28-18.38.19l0-.24a2.39,2.39,0,0,1,.46-.12c.87-.08,1.73-.14,2.6-.23a3,3,0,0,0,3-3c.05-.51.08-1,.08-1.53V23.56l-.15,0c-.08.18-.17.36-.23.54L65.71,57a1.7,1.7,0,0,0,.06,1.52c3,5.4,2.76,10.92.48,16.47a22.18,22.18,0,0,1-1.37,2.54.85.85,0,0,0,0,.94c3.75,6.34,8.45,11.78,14.86,15.59a38,38,0,0,0,13.86,4.83c1.6.24,3.22.37,5,.57-1.06,0-2,0-2.86,0a51,51,0,0,1-16.79-3.69,42.65,42.65,0,0,1-19.6-16.65,74.18,74.18,0,0,1-6.68-13.59q-6.27-16-12.6-31.91c-.06-.15-.14-.29-.21-.44h-.18v2.56c0,3.85,0,7.71,0,11.56,0,.54.14.77.74.73,1,0,2,0,3,0a3.6,3.6,0,0,1,.63.15l0,.25-1.8.05c-.64,0-1.29,0-1.93,0s-.64.17-.63.65c0,.85,0,1.7,0,2.56q0,10.49,0,21,0,.8.06,1.59a3,3,0,0,0,3,3.1c.87.09,1.74.15,2.6.22a4,4,0,0,1,.5.11l0,.17a1.77,1.77,0,0,1-.48.15L29.1,78H27.75a4.34,4.34,0,0,1-.52-.09v-.17a3.38,3.38,0,0,1,.42-.13c.88-.08,1.77-.13,2.65-.22a3,3,0,0,0,3-2.79,10.37,10.37,0,0,0,.1-1.47q0-23,0-45.94a16.34,16.34,0,0,0-.15-2,2.58,2.58,0,0,0-2.12-2.36c-1-.22-2.09-.27-3.14-.39l-.74-.1Z"/><path class="cls-1" d="M42.81,22.12a1,1,0,0,1,.2-.07c2.61.1,5.23,0,7.81.34A16,16,0,0,1,61,27.31a9.86,9.86,0,0,1,2.63,5.78,12.24,12.24,0,0,1-1.92,8.71A14.48,14.48,0,0,1,54,47.27a.42.42,0,0,1-.58-.26c-.59-1.17-.6-1.21.33-2.12a12.76,12.76,0,0,0,3.52-7.2,14.17,14.17,0,0,0-.87-8.39,10.86,10.86,0,0,0-10.41-6.86c-.87,0-1.74,0-2.61,0a2.16,2.16,0,0,1-.55-.16Z"/><path class="cls-1" d="M30.37,37.42a4.3,4.3,0,0,1-.67.24,28.37,28.37,0,0,0-9.46,3C13.57,44.22,9.7,49.86,8.29,57.23a27.34,27.34,0,0,0,.88,15A26.37,26.37,0,0,0,23.72,87.56,27.84,27.84,0,0,0,35.09,90a34.73,34.73,0,0,0,14.48-2.7,19.22,19.22,0,0,0,7.48-5.73c.29-.37.6-.73.91-1.09l.15-.09L59.94,83c-.58.42-1.12.84-1.7,1.22a35.57,35.57,0,0,1-12.71,5.17,40.55,40.55,0,0,1-11.71,1c-11.16-.92-19.49-6.17-24.35-16.45a23.64,23.64,0,0,1-2-9.24,30,30,0,0,1,2-12.54A22.79,22.79,0,0,1,23,39a28.41,28.41,0,0,1,6.72-1.74l.46,0S30.2,37.3,30.37,37.42Z"/></svg>